<svg width="257" height="64" viewBox="0 0 257 64" fill="none" xmlns="http://www.w3.org/2000/svg">
<path d="M70.5543 32C70.5543 14.3226 54.7649 0 35.2772 0C15.7894 0 0 14.3226 0 32C0 47.9716 12.9003 61.2103 29.7651 63.6129V41.2503H20.8036V32H29.7651V24.9497C29.7651 16.9303 35.0282 12.5006 43.0893 12.5006C46.9499 12.5006 50.9869 13.1252 50.9869 13.1252V20.9961H46.5374C42.1562 20.9961 40.7892 23.4632 40.7892 25.9935V32H50.5729L49.0082 41.2503H40.7892V63.6129C57.654 61.2103 70.5543 47.9716 70.5543 32Z" fill="#3791E3"/>
<path d="M150.317 11.0425C144.357 5.62316 136.42 2.64252 127.985 2.64252C110.574 2.64252 96.406 15.4941 96.406 31.2877C96.406 36.3328 97.8569 41.2619 100.617 45.6103L96.1357 60.449L112.878 56.4619C117.487 58.7458 122.679 59.9457 127.971 59.9457H127.985C145.382 59.9457 159.862 47.0941 159.862 31.3006C159.862 23.649 156.278 16.4619 150.317 11.0425ZM127.985 55.1199C123.262 55.1199 118.639 53.9716 114.614 51.8038L113.661 51.2877L103.732 53.649L106.377 44.8619L105.752 43.9587C103.12 40.1651 101.74 35.7909 101.74 31.2877C101.74 18.1651 113.518 7.48123 127.999 7.48123C135.012 7.48123 141.598 9.95865 146.548 14.4619C151.498 18.9651 154.542 24.9393 154.528 31.3006C154.528 44.4361 142.451 55.1199 127.985 55.1199ZM142.38 37.2877C141.598 36.9264 137.714 35.1974 136.989 34.9651C136.264 34.7199 135.737 34.6038 135.211 35.3264C134.685 36.049 133.177 37.649 132.707 38.1393C132.252 38.6167 131.783 38.6812 131 38.3199C126.363 36.2167 123.319 34.5651 120.261 29.8038C119.45 28.5393 121.072 28.6296 122.579 25.8941C122.835 25.4167 122.707 25.0038 122.508 24.6425C122.309 24.2812 120.73 20.7586 120.076 19.3264C119.436 17.9328 118.781 18.1264 118.298 18.1006C117.843 18.0748 117.316 18.0748 116.79 18.0748C116.264 18.0748 115.41 18.2554 114.685 18.9651C113.959 19.6877 111.925 21.4167 111.925 24.9393C111.925 28.4619 114.756 31.8683 115.14 32.3457C115.538 32.8232 120.702 40.049 128.625 43.1586C133.632 45.1199 135.595 45.2877 138.098 44.9522C139.621 44.7457 142.764 43.2232 143.419 41.5457C144.073 39.8683 144.073 38.4361 143.874 38.1393C143.689 37.8167 143.162 37.6361 142.38 37.2877Z" fill="#3791E3"/>
<path d="M221.723 0C202.235 0 186.446 14.3226 186.446 32C186.446 49.6774 202.235 64 221.723 64C241.211 64 257 49.6774 257 32C257 14.3226 241.211 0 221.723 0ZM239.049 21.9226L233.259 46.671C232.832 48.4258 231.68 48.8516 230.073 48.0258L221.254 42.129L217 45.8452C216.531 46.271 216.133 46.6323 215.222 46.6323L215.848 38.4903L232.192 25.0968C232.904 24.529 232.036 24.2065 231.097 24.7742L210.898 36.3097L202.192 33.8452C200.301 33.3032 200.258 32.129 202.591 31.3032L236.602 19.4065C238.181 18.8903 239.561 19.7548 239.049 21.9226Z" fill="#3791E3"/>
</svg>
